<?xml version="1.0" standalone="no"?>
<!DOCTYPE svg PUBLIC "-//W3C//DTD SVG 1.1//EN" "http://www.w3.org/Graphics/SVG/1.1/DTD/svg11.dtd">
<svg xmlns="http://www.w3.org/2000/svg" class="railroad-diagram" width="656" height="92" viewBox="0 0 656 92">
	<style>
svg.railroad-diagram {
	background-color: hsl(30,20%,95%);
}
svg.railroad-diagram path {
	stroke-width: 3;
	stroke: black;
	fill: rgba(0,0,0,0);
}
svg.railroad-diagram text {
	font: bold 14px monospace;
	text-anchor: middle;
}
svg.railroad-diagram text.diagram-text {
	font-size: 12px;
}
svg.railroad-diagram text.diagram-arrow {
	font-size: 16px;
}
svg.railroad-diagram text.label {
	text-anchor: start;
}
svg.railroad-diagram text.comment {
	font: italic 12px monospace;
}
svg.railroad-diagram rect {
	stroke-width: 3;
	stroke: black;
	fill: hsl(120,100%,90%);
}
svg.railroad-diagram path.diagram-text {
	stroke-width: 3;
	stroke: black;
	fill: white;
	cursor: help;
}
svg.railroad-diagram g.diagram-text:hover path.diagram-text {
	fill: #eee;
}
	</style>
	<g transform="translate(.5 .5)">
		<path d="M 20 21 v 20 m 10 -20 v 20 m -10 -10 h 20.5"/>
		<path d="M40 31h10"/>
		<g>
			<path d="M50 31h0"/>
			<path d="M138 31h0"/>
			<path d="M50 31h10"/>
			<g class="non-terminal">
				<path d="M60 31h0"/>
				<path d="M128 31h0"/>
				<rect x="60" y="20" width="68" height="22"/>
				<text x="94" y="35">Number</text>
			</g>
			<path d="M128 31h10"/>
			<text x="94" y="66" class="comment">GRADE</text>
		</g>
		<path d="M138 31h10"/>
		<path d="M148 31h10"/>
		<g class="terminal">
			<path d="M158 31h0"/>
			<path d="M186 31h0"/>
			<rect x="158" y="20" width="28" height="22" rx="10" ry="10"/>
			<text x="172" y="35">.</text>
		</g>
		<path d="M186 31h10"/>
		<path d="M196 31h10"/>
		<g>
			<path d="M206 31h0"/>
			<path d="M294 31h0"/>
			<path d="M206 31h10"/>
			<g class="non-terminal">
				<path d="M216 31h0"/>
				<path d="M284 31h0"/>
				<rect x="216" y="20" width="68" height="22"/>
				<text x="250" y="35">Number</text>
			</g>
			<path d="M284 31h10"/>
			<text x="250" y="66" class="comment">MAJOR</text>
		</g>
		<path d="M294 31h10"/>
		<path d="M304 31h10"/>
		<g class="terminal">
			<path d="M314 31h0"/>
			<path d="M342 31h0"/>
			<rect x="314" y="20" width="28" height="22" rx="10" ry="10"/>
			<text x="328" y="35">.</text>
		</g>
		<path d="M342 31h10"/>
		<path d="M352 31h10"/>
		<g>
			<path d="M362 31h0"/>
			<path d="M450 31h0"/>
			<path d="M362 31h10"/>
			<g class="non-terminal">
				<path d="M372 31h0"/>
				<path d="M440 31h0"/>
				<rect x="372" y="20" width="68" height="22"/>
				<text x="406" y="35">Number</text>
			</g>
			<path d="M440 31h10"/>
			<text x="406" y="66" class="comment">MINOR</text>
		</g>
		<path d="M450 31h10"/>
		<path d="M460 31h10"/>
		<g class="terminal">
			<path d="M470 31h0"/>
			<path d="M498 31h0"/>
			<rect x="470" y="20" width="28" height="22" rx="10" ry="10"/>
			<text x="484" y="35">.</text>
		</g>
		<path d="M498 31h10"/>
		<path d="M508 31h10"/>
		<g>
			<path d="M518 31h0"/>
			<path d="M606 31h0"/>
			<path d="M518 31h10"/>
			<g class="non-terminal">
				<path d="M528 31h0"/>
				<path d="M596 31h0"/>
				<rect x="528" y="20" width="68" height="22"/>
				<text x="562" y="35">Number</text>
			</g>
			<path d="M596 31h10"/>
			<text x="562" y="66" class="comment">PATCH</text>
		</g>
		<path d="M606 31h10"/>
		<path d="M 616 31 h 20 m -10 -10 v 20 m 10 -20 v 20"/>
	</g>
</svg>