<?xml version="1.0" standalone="no"?>
<!DOCTYPE svg PUBLIC "-//W3C//DTD SVG 1.1//EN" "http://www.w3.org/Graphics/SVG/1.1/DTD/svg11.dtd">
<svg xmlns="http://www.w3.org/2000/svg" class="railroad-diagram" width="228" height="122" viewBox="0 0 228 122">
	<style>
svg.railroad-diagram {
	background-color: hsl(30,20%,95%);
}
svg.railroad-diagram path {
	stroke-width: 3;
	stroke: black;
	fill: rgba(0,0,0,0);
}
svg.railroad-diagram text {
	font: bold 14px monospace;
	text-anchor: middle;
}
svg.railroad-diagram text.diagram-text {
	font-size: 12px;
}
svg.railroad-diagram text.diagram-arrow {
	font-size: 16px;
}
svg.railroad-diagram text.label {
	text-anchor: start;
}
svg.railroad-diagram text.comment {
	font: italic 12px monospace;
}
svg.railroad-diagram rect {
	stroke-width: 3;
	stroke: black;
	fill: hsl(120,100%,90%);
}
svg.railroad-diagram path.diagram-text {
	stroke-width: 3;
	stroke: black;
	fill: white;
	cursor: help;
}
svg.railroad-diagram g.diagram-text:hover path.diagram-text {
	fill: #eee;
}
	</style>
	<g transform="translate(.5 .5)">
		<path d="M 20 51 v 20 m 10 -20 v 20 m -10 -10 h 20.5"></path>
		<path d="M40 61h10"></path>
		<g>
			<path d="M50 61h0"></path>
			<path d="M178 61h0"></path>
			<path d="M50 61h10"></path>
			<g>
				<path d="M60 61h0"></path>
				<path d="M168 61h0"></path>
				<path d="M60 61a10 10 0 0 0 10 -10v-10a10 10 0 0 1 10 -10"></path>
				<g class="non-terminal">
					<path d="M80 31h0"></path>
					<path d="M148 31h0"></path>
					<rect x="80" y="20" width="68" height="22"></rect>
					<text x="114" y="35">Number</text>
				</g>
				<path d="M148 31a10 10 0 0 1 10 10v10a10 10 0 0 0 10 10"></path>
				<path d="M60 61h20"></path>
				<g class="non-terminal">
					<path d="M80 61h8"></path>
					<path d="M140 61h8"></path>
					<rect x="88" y="50" width="52" height="22"></rect>
					<text x="114" y="65">Name</text>
				</g>
				<path d="M148 61h20"></path>
			</g>
			<path d="M168 61h10"></path>
			<path d="M60 61a10 10 0 0 0 -10 10v10a10 10 0 0 0 10 10"></path>
			<g class="terminal">
				<path d="M60 91h40"></path>
				<path d="M128 91h40"></path>
				<rect x="100" y="80" width="28" height="22" rx="10" ry="10"></rect>
				<text x="114" y="95">.</text>
			</g>
			<path d="M168 91a10 10 0 0 0 10 -10v-10a10 10 0 0 0 -10 -10"></path>
		</g>
		<path d="M178 61h10"></path>
		<path d="M 188 61 h 20 m -10 -10 v 20 m 10 -20 v 20"></path>
	</g>
</svg>
