<svg xmlns="http://www.w3.org/2000/svg" class="railroad-diagram" width="768" height="62" viewBox="0 0 768 62">
	<style>
svg.railroad-diagram {
	background-color: hsl(30,20%,95%);
}
svg.railroad-diagram path {
	stroke-width: 3;
	stroke: black;
	fill: rgba(0,0,0,0);
}
svg.railroad-diagram text {
	font: bold 14px monospace;
	text-anchor: middle;
}
svg.railroad-diagram text.diagram-text {
	font-size: 12px;
}
svg.railroad-diagram text.diagram-arrow {
	font-size: 16px;
}
svg.railroad-diagram text.label {
	text-anchor: start;
}
svg.railroad-diagram text.comment {
	font: italic 12px monospace;
}
svg.railroad-diagram rect {
	stroke-width: 3;
	stroke: black;
	fill: hsl(120,100%,90%);
}
svg.railroad-diagram path.diagram-text {
	stroke-width: 3;
	stroke: black;
	fill: white;
	cursor: help;
}
svg.railroad-diagram g.diagram-text:hover path.diagram-text {
	fill: #eee;
}
	</style>
	<g transform="translate(.5 .5)">
		<path d="M 20 21 v 20 m 10 -20 v 20 m -10 -10 h 20.5"></path>
		<path d="M40 31h10"></path>
		<g>
			<path d="M50 31h0"></path>
			<path d="M718 31h0"></path>
			<g class="terminal">
				<path d="M50 31h0"></path>
				<path d="M166 31h0"></path>
				<rect x="50" y="20" width="116" height="22" rx="10" ry="10"></rect>
				<text x="108" y="35">Grade Number</text>
			</g>
			<path d="M166 31h10"></path>
			<path d="M176 31h10"></path>
			<g class="terminal">
				<path d="M186 31h0"></path>
				<path d="M214 31h0"></path>
				<rect x="186" y="20" width="28" height="22" rx="10" ry="10"></rect>
				<text x="200" y="35">.</text>
			</g>
			<path d="M214 31h10"></path>
			<path d="M224 31h10"></path>
			<g class="terminal">
				<path d="M234 31h0"></path>
				<path d="M350 31h0"></path>
				<rect x="234" y="20" width="116" height="22" rx="10" ry="10"></rect>
				<text x="292" y="35">Major Number</text>
			</g>
			<path d="M350 31h10"></path>
			<path d="M360 31h10"></path>
			<g class="terminal">
				<path d="M370 31h0"></path>
				<path d="M398 31h0"></path>
				<rect x="370" y="20" width="28" height="22" rx="10" ry="10"></rect>
				<text x="384" y="35">.</text>
			</g>
			<path d="M398 31h10"></path>
			<path d="M408 31h10"></path>
			<g class="terminal">
				<path d="M418 31h0"></path>
				<path d="M534 31h0"></path>
				<rect x="418" y="20" width="116" height="22" rx="10" ry="10"></rect>
				<text x="476" y="35">Minor Number</text>
			</g>
			<path d="M534 31h10"></path>
			<path d="M544 31h10"></path>
			<g class="terminal">
				<path d="M554 31h0"></path>
				<path d="M582 31h0"></path>
				<rect x="554" y="20" width="28" height="22" rx="10" ry="10"></rect>
				<text x="568" y="35">.</text>
			</g>
			<path d="M582 31h10"></path>
			<path d="M592 31h10"></path>
			<g class="terminal">
				<path d="M602 31h0"></path>
				<path d="M718 31h0"></path>
				<rect x="602" y="20" width="116" height="22" rx="10" ry="10"></rect>
				<text x="660" y="35">Patch Number</text>
			</g>
		</g>
		<path d="M718 31h10"></path>
		<path d="M 728 31 h 20 m -10 -10 v 20 m 10 -20 v 20"></path>
	</g>
</svg>
