<?xml version="1.0" standalone="no"?>
<!DOCTYPE svg PUBLIC "-//W3C//DTD SVG 1.1//EN" "http://www.w3.org/Graphics/SVG/1.1/DTD/svg11.dtd">
<svg xmlns="http://www.w3.org/2000/svg" class="railroad-diagram" width="204" height="160" viewBox="0 0 204 160">
	<style>
svg.railroad-diagram {
	background-color: hsl(30,20%,95%);
}
svg.railroad-diagram path {
	stroke-width: 3;
	stroke: black;
	fill: rgba(0,0,0,0);
}
svg.railroad-diagram text {
	font: bold 14px monospace;
	text-anchor: middle;
}
svg.railroad-diagram text.diagram-text {
	font-size: 12px;
}
svg.railroad-diagram text.diagram-arrow {
	font-size: 16px;
}
svg.railroad-diagram text.label {
	text-anchor: start;
}
svg.railroad-diagram text.comment {
	font: italic 12px monospace;
}
svg.railroad-diagram rect {
	stroke-width: 3;
	stroke: black;
	fill: hsl(120,100%,90%);
}
svg.railroad-diagram path.diagram-text {
	stroke-width: 3;
	stroke: black;
	fill: white;
	cursor: help;
}
svg.railroad-diagram g.diagram-text:hover path.diagram-text {
	fill: #eee;
}
	</style>
	<g transform="translate(.5 .5)">
		<path d="M 20 21 v 20 m 10 -20 v 20 m -10 -10 h 20.5"></path>
		<path d="M40 31h10"></path>
		<g>
			<path d="M50 31h0"></path>
			<path d="M154 31h0"></path>
			<path d="M50 31h10"></path>
			<g>
				<path d="M60 31h0"></path>
				<path d="M144 31h0"></path>
				<path d="M60 31h20"></path>
				<g class="terminal">
					<path d="M80 31h0"></path>
					<path d="M124 31h0"></path>
					<rect x="80" y="20" width="44" height="22" rx="10" ry="10"></rect>
					<text x="102" y="35">a-z</text>
				</g>
				<path d="M124 31h20"></path>
				<path d="M60 31a10 10 0 0 1 10 10v10a10 10 0 0 0 10 10"></path>
				<g class="terminal">
					<path d="M80 61h0"></path>
					<path d="M124 61h0"></path>
					<rect x="80" y="50" width="44" height="22" rx="10" ry="10"></rect>
					<text x="102" y="65">A-Z</text>
				</g>
				<path d="M124 61a10 10 0 0 0 10 -10v-10a10 10 0 0 1 10 -10"></path>
				<path d="M60 31a10 10 0 0 1 10 10v40a10 10 0 0 0 10 10"></path>
				<g class="terminal">
					<path d="M80 91h0"></path>
					<path d="M124 91h0"></path>
					<rect x="80" y="80" width="44" height="22" rx="10" ry="10"></rect>
					<text x="102" y="95">0-9</text>
				</g>
				<path d="M124 91a10 10 0 0 0 10 -10v-40a10 10 0 0 1 10 -10"></path>
				<path d="M60 31a10 10 0 0 1 10 10v70a10 10 0 0 0 10 10"></path>
				<g class="terminal">
					<path d="M80 121h8"></path>
					<path d="M116 121h8"></path>
					<rect x="88" y="110" width="28" height="22" rx="10" ry="10"></rect>
					<text x="102" y="125">-</text>
				</g>
				<path d="M124 121a10 10 0 0 0 10 -10v-70a10 10 0 0 1 10 -10"></path>
			</g>
			<path d="M144 31h10"></path>
			<path d="M60 31a10 10 0 0 0 -10 10v89a10 10 0 0 0 10 10"></path>
			<g>
				<path d="M60 140h84"></path>
			</g>
			<path d="M144 140a10 10 0 0 0 10 -10v-89a10 10 0 0 0 -10 -10"></path>
		</g>
		<path d="M154 31h10"></path>
		<path d="M 164 31 h 20 m -10 -10 v 20 m 10 -20 v 20"></path>
	</g>
</svg>
