<?xml version="1.0" standalone="no"?>
<!DOCTYPE svg PUBLIC "-//W3C//DTD SVG 1.1//EN" "http://www.w3.org/Graphics/SVG/1.1/DTD/svg11.dtd">
<svg xmlns="http://www.w3.org/2000/svg" class="railroad-diagram" width="278" height="110" viewBox="0 0 278 110">
	<style>
svg.railroad-diagram {
	background-color: hsl(30,20%,95%);
}
svg.railroad-diagram path {
	stroke-width: 3;
	stroke: black;
	fill: rgba(0,0,0,0);
}
svg.railroad-diagram text {
	font: bold 14px monospace;
	text-anchor: middle;
}
svg.railroad-diagram text.diagram-text {
	font-size: 12px;
}
svg.railroad-diagram text.diagram-arrow {
	font-size: 16px;
}
svg.railroad-diagram text.label {
	text-anchor: start;
}
svg.railroad-diagram text.comment {
	font: italic 12px monospace;
}
svg.railroad-diagram rect {
	stroke-width: 3;
	stroke: black;
	fill: hsl(120,100%,90%);
}
svg.railroad-diagram path.diagram-text {
	stroke-width: 3;
	stroke: black;
	fill: white;
	cursor: help;
}
svg.railroad-diagram g.diagram-text:hover path.diagram-text {
	fill: #eee;
}
	</style>
	<g transform="translate(.5 .5)">
		<path d="M 20 60 v 20 m 10 -20 v 20 m -10 -10 h 20.5"></path>
		<g>
			<path d="M40 70h0"></path>
			<path d="M238 70h0"></path>
			<path d="M40 70a10 10 0 0 0 10 -10v-19a10 10 0 0 1 10 -10"></path>
			<g class="terminal">
				<path d="M60 31h65"></path>
				<path d="M153 31h65"></path>
				<rect x="125" y="20" width="28" height="22" rx="10" ry="10"></rect>
				<text x="139" y="35">0</text>
			</g>
			<path d="M218 31a10 10 0 0 1 10 10v19a10 10 0 0 0 10 10"></path>
			<path d="M40 70h20"></path>
			<g>
				<path d="M60 70h0"></path>
				<path d="M218 70h0"></path>
				<g class="terminal">
					<path d="M60 70h0"></path>
					<path d="M104 70h0"></path>
					<rect x="60" y="59" width="44" height="22" rx="10" ry="10"></rect>
					<text x="82" y="74">1-9</text>
				</g>
				<path d="M104 70h10"></path>
				<g>
					<path d="M114 70h0"></path>
					<path d="M218 70h0"></path>
					<path d="M114 70a10 10 0 0 0 10 -10v0a10 10 0 0 1 10 -10"></path>
					<g>
						<path d="M134 50h64"></path>
					</g>
					<path d="M198 50a10 10 0 0 1 10 10v0a10 10 0 0 0 10 10"></path>
					<path d="M114 70h20"></path>
					<g>
						<path d="M134 70h0"></path>
						<path d="M198 70h0"></path>
						<path d="M134 70h10"></path>
						<g class="terminal">
							<path d="M144 70h0"></path>
							<path d="M188 70h0"></path>
							<rect x="144" y="59" width="44" height="22" rx="10" ry="10"></rect>
							<text x="166" y="74">0-9</text>
						</g>
						<path d="M188 70h10"></path>
						<path d="M144 70a10 10 0 0 0 -10 10v0a10 10 0 0 0 10 10"></path>
						<g>
							<path d="M144 90h44"></path>
						</g>
						<path d="M188 90a10 10 0 0 0 10 -10v0a10 10 0 0 0 -10 -10"></path>
					</g>
					<path d="M198 70h20"></path>
				</g>
			</g>
			<path d="M218 70h20"></path>
		</g>
		<path d="M 238 70 h 20 m -10 -10 v 20 m 10 -20 v 20"></path>
	</g>
</svg>
