<?xml version="1.0" standalone="no"?>
<!DOCTYPE svg PUBLIC "-//W3C//DTD SVG 1.1//EN" "http://www.w3.org/Graphics/SVG/1.1/DTD/svg11.dtd">
<svg xmlns="http://www.w3.org/2000/svg" class="railroad-diagram" width="536" height="112" viewBox="0 0 536 112">
	<style>
svg.railroad-diagram {
	background-color: hsl(30,20%,95%);
}
svg.railroad-diagram path {
	stroke-width: 3;
	stroke: black;
	fill: rgba(0,0,0,0);
}
svg.railroad-diagram text {
	font: bold 14px monospace;
	text-anchor: middle;
}
svg.railroad-diagram text.diagram-text {
	font-size: 12px;
}
svg.railroad-diagram text.diagram-arrow {
	font-size: 16px;
}
svg.railroad-diagram text.label {
	text-anchor: start;
}
svg.railroad-diagram text.comment {
	font: italic 12px monospace;
}
svg.railroad-diagram rect {
	stroke-width: 3;
	stroke: black;
	fill: hsl(120,100%,90%);
}
svg.railroad-diagram path.diagram-text {
	stroke-width: 3;
	stroke: black;
	fill: white;
	cursor: help;
}
svg.railroad-diagram g.diagram-text:hover path.diagram-text {
	fill: #eee;
}
	</style>
	<g transform="translate(.5 .5)">
		<path d="M 20 21 v 20 m 10 -20 v 20 m -10 -10 h 20.5"/>
		<path d="M40 31h10"/>
		<g class="non-terminal">
			<path d="M50 31h0"/>
			<path d="M102 31h0"/>
			<rect x="50" y="20" width="52" height="22"/>
			<text x="76" y="35">Core</text>
		</g>
		<path d="M102 31h10"/>
		<g>
			<path d="M112 31h0"/>
			<path d="M304 31h0"/>
			<path d="M112 31h20"/>
			<g>
				<path d="M132 31h152"/>
			</g>
			<path d="M284 31h20"/>
			<path d="M112 31a10 10 0 0 1 10 10v0a10 10 0 0 0 10 10"/>
			<g>
				<path d="M132 51h0"/>
				<path d="M284 51h0"/>
				<g class="terminal">
					<path d="M132 51h0"/>
					<path d="M160 51h0"/>
					<rect x="132" y="40" width="28" height="22" rx="10" ry="10"/>
					<text x="146" y="55">-</text>
				</g>
				<path d="M160 51h10"/>
				<path d="M170 51h10"/>
				<g>
					<path d="M180 51h0"/>
					<path d="M284 51h0"/>
					<path d="M180 51h10"/>
					<g class="non-terminal">
						<path d="M190 51h0"/>
						<path d="M274 51h0"/>
						<rect x="190" y="40" width="84" height="22"/>
						<text x="232" y="55">Metadata</text>
					</g>
					<path d="M274 51h10"/>
					<text x="232" y="86" class="comment">Release</text>
				</g>
			</g>
			<path d="M284 51a10 10 0 0 0 10 -10v0a10 10 0 0 1 10 -10"/>
		</g>
		<g>
			<path d="M304 31h0"/>
			<path d="M496 31h0"/>
			<path d="M304 31h20"/>
			<g>
				<path d="M324 31h152"/>
			</g>
			<path d="M476 31h20"/>
			<path d="M304 31a10 10 0 0 1 10 10v0a10 10 0 0 0 10 10"/>
			<g>
				<path d="M324 51h0"/>
				<path d="M476 51h0"/>
				<g class="terminal">
					<path d="M324 51h0"/>
					<path d="M352 51h0"/>
					<rect x="324" y="40" width="28" height="22" rx="10" ry="10"/>
					<text x="338" y="55">+</text>
				</g>
				<path d="M352 51h10"/>
				<path d="M362 51h10"/>
				<g>
					<path d="M372 51h0"/>
					<path d="M476 51h0"/>
					<path d="M372 51h10"/>
					<g class="non-terminal">
						<path d="M382 51h0"/>
						<path d="M466 51h0"/>
						<rect x="382" y="40" width="84" height="22"/>
						<text x="424" y="55">Metadata</text>
					</g>
					<path d="M466 51h10"/>
					<text x="424" y="86" class="comment">Build</text>
				</g>
			</g>
			<path d="M476 51a10 10 0 0 0 10 -10v0a10 10 0 0 1 10 -10"/>
		</g>
		<path d="M 496 31 h 20 m -10 -10 v 20 m 10 -20 v 20"/>
	</g>
</svg>
